<svg id="Layer_1" data-name="Layer 1" xmlns="http://www.w3.org/2000/svg" viewBox="0 0 400 190.7"><defs><style>.cls-1{fill:#0e0f25;}</style></defs><title>group_01</title><g id="图层_1" data-name="图层 1"><path class="cls-1" d="M290.16,24.5c24.64.24,50,2.68,72.47,12.84,17.8,8,39.13,24.49,37.25,46.73-1.67,19.93-21.95,31.78-38.8,37.65-23.59,8.22-49.35,9.24-74.19,7.65-21.05-1.35-42.91-4.4-63.35,1-19,5-35.12,16.76-49.42,30.32-11.18,10.6-21.88,23.54-37.13,28.21-15,4.58-31-.07-43.83-7.83-9.88-6-18.34-14.23-26.6-22.46C47.1,139.25,26.19,119.94,12,96.48,5.66,86,.79,74.17.08,61.68a52.47,52.47,0,0,1,11.06-34.9C22.22,12.17,40.13,3.6,57.89,1c19.63-2.9,39.48,1.29,58.93,5.12C173.63,17.28,232.26,23.93,290.16,24.5Z" transform="translate(0 -0.01)"/></g></svg>