<svg id="Layer_1" data-name="Layer 1" xmlns="http://www.w3.org/2000/svg" viewBox="0 0 400 216.36"><defs><style>.cls-1{fill:#0e0f25;}</style></defs><title>group_01</title><g id="图层_1" data-name="图层 1"><path class="cls-1" d="M284.44,24.88c23.19-3.45,47.26-5.58,70,.58,20.88,5.64,41.36,20.72,45,43.51,3.49,21.83-9.92,42.12-26.39,55.05-21.34,16.75-49.38,23.69-76.05,25.44-24.3,1.61-49.43.09-72.8,6.88-22.72,6.59-42.5,20.14-62,33.61-17.17,11.88-35,23.85-56.34,26.06C87.21,217.94,68.28,212,55,199.2c-8.37-8-14.13-18.42-19.62-28.8C22.57,146.2,9.07,121.56,2.73,94.86-3.46,68.79.44,41.59,19.18,21.56,31.27,8.65,48.65,1,66,.1c18.28-1,36.07,5.4,53.6,10.8C172.09,27.11,229.93,33,284.44,24.88Z" transform="translate(0 0)"/></g></svg>