<svg id="Layer_1" data-name="Layer 1" xmlns="http://www.w3.org/2000/svg" viewBox="0 0 400 174.41"><defs><style>.cls-1{fill:#0e0f25;}</style></defs><title>group_01</title><g id="图层_1" data-name="图层 1"><path class="cls-1" d="M287,7.81c24.59-1.71,50.23-1.55,73.23,7.45C380.58,23.2,400.62,40.63,400,64.54c-.59,22.09-18.58,39-37.14,48-23.51,11.4-50.37,13.06-76.18,10.9-22.45-1.88-45.46-5.76-67.53-1-20.48,4.44-38.5,15.56-55.76,27.43-14.54,10-29,20.07-46.72,23.3-15.6,2.85-32.89.86-46.74-6.78C61.41,161.69,54.45,155,47.7,148,32.42,132.19,15.9,116.22,6.17,96.37-4.55,74.51-.89,50.72,14,31.79,25.4,17.34,42.27,7.13,59.92,2.73,78.15-1.81,97,.23,115.71,2.34,172.26,8.73,230.22,11.75,287,7.81Z" transform="translate(0 0)"/></g></svg>