<svg xmlns="http://www.w3.org/2000/svg" viewBox="0 0 1338.03 935.89"><defs><style>.cls-1{fill:#191c2e;}</style></defs><title>bulbAsset 34</title><g id="Layer_2" data-name="Layer 2"><g id="图层_1" data-name="图层 1"><path class="cls-1" d="M1407.66,298.5c-8.47,92.41-50.64,202.53-129.77,257-84.89,58.41-186.75,79.3-288.76,80.32-74.12.73-153.28-6.28-220.77,27.6C655.77,719.92,653,877,551.85,944.05c-31.78,21.07-68.22,31.26-105.72,38.43-83.3,15.92-170.3,11.25-242.38-35.33C96.68,878,55.73,731,76.22,608.54c29-173.26,153.78-305.1,302-390.21C555.1,116.72,764.2,65.09,967.13,56.14c116.06-5.12,234.59,4.5,345.61,40.09C1398.41,123.69,1414.77,221,1407.66,298.5Z" transform="translate(-71.11 -54.86)"/></g></g></svg>