<svg xmlns="http://www.w3.org/2000/svg" viewBox="0 0 1522.76 1384.9"><defs><style>.cls-1{fill:none;stroke:#000;stroke-miterlimit:10;stroke-width:10px;}</style></defs><title>bulbAsset 38</title><g id="Layer_2" data-name="Layer 2"><g id="图层_1" data-name="图层 1"><path class="cls-1" d="M1597.27,506.34c10.42-22.95,22.79-45.52,30.75-69.66,52.58-159.47-6.66-351.35-174.54-408C1345.78-7.66,1245,4.69,1144.6,56.41c-22.7,11.69-45,24.35-67.21,37.13-159,91.64-336,147.47-515.82,179.78-118.71,21.33-263.34,29.84-358.31,112.5C133.54,446.51,125,549.93,140.3,636c15.95,89.54,58.14,184.57,129.68,243,77.87,63.57,173.39,82.41,271.06,93,91.85,9.91,191.05,16.42,267.78,73.39,90.64,67.31,117.44,188.48,195.49,265.26,64.82,63.75,177.15,91.7,260.66,57.47,89-36.48,144.24-129.68,186.6-213.25,47.53-93.77,62.43-192.16,69.09-295.87C1528.56,735.9,1546.23,618.67,1597.27,506.34Z" transform="translate(-128.84 -2.83)"/></g></g></svg>