<svg xmlns="http://www.w3.org/2000/svg" viewBox="0 0 2363.06 1030.41">
    <defs>
        <style>
            .cls-1 {
                fill: #0e0f25;
            }
        </style>
    </defs>
    <title>bulbAsset 30</title>
    <g id="Layer_2" data-name="Layer 2">
        <g id="图层_1" data-name="图层 1">
            <path class="cls-1"
                d="M1954.79,169.39c145.3-10.08,296.78-9.14,432.64,44,120,46.9,238.38,149.9,234.62,291.13C2618.58,635,2512.32,734.84,2402.65,788c-138.88,67.35-297.55,77.15-450,64.39-132.66-11.1-268.61-34.07-399-5.79-120.94,26.22-227.4,91.88-329.39,162-85.89,59.1-171.5,118.58-276,137.68-92.15,16.85-194.32,5.09-276.14-40.08-50.24-27.74-91.36-67.07-131.27-108.47C450.6,904.18,353,809.83,295.5,692.57c-63.31-129.13-41.7-269.68,46.38-381.5,67.25-85.39,166.88-145.68,271.19-171.68,107.68-26.84,219.26-14.81,329.58-2.34C1276.75,174.83,1619.16,192.68,1954.79,169.39Z"
                transform="translate(-259.08 -123.26)" />
        </g>
    </g>
</svg>
