<svg xmlns="http://www.w3.org/2000/svg" viewBox="0 0 2463.89 1174.67">
    <path class="cls-1"
        d="M2109.43,211.78c151.76,1.49,308,16.49,446.44,79.08,109.59,49.56,241,150.86,229.45,287.81-10.33,122.77-135.21,195.77-239,231.94-145.36,50.64-304,56.91-457,47.1-129.7-8.31-264.35-27.05-390.24,6.17-117.24,30.93-216.36,103.25-304.43,186.76-68.85,65.29-134.77,145-228.68,173.76-92.19,28.26-191.25-.42-270-48.2-60.87-37-113-87.67-163.87-138.34-119.84-119.24-248.66-238.23-336-382.72C357,590.5,327,517.7,322.64,440.81c-4.44-78.86,21.13-153.07,68.09-215C459,135.8,569.3,83,678.71,66.86c120.9-17.84,243.18,8,363,31.54C1391.65,167.28,1752.77,208.27,2109.43,211.78Z"
        transform="translate(-322.14 -60.91)" />
</svg>