<svg xmlns="http://www.w3.org/2000/svg" viewBox="0 0 1592.23 1441.05"><defs><style>.cls-1{fill:none;stroke:#000;stroke-miterlimit:10;stroke-width:10px;}</style></defs><title>bulbAsset 39</title><g id="Layer_2" data-name="Layer 2"><g id="图层_1" data-name="图层 1"><path class="cls-1" d="M1637.07,540.35c10.1-24.05,22.34-47.82,29.64-73,48.79-168.61-17-377.17-192.91-437.39-55-18.84-113-28.41-171.4-20.17-51.58,7.28-100,27.62-145.71,51.93-23.33,12.41-46.11,25.89-68.77,39.41C924.07,198.85,741.31,259.94,556.35,304c-126,30-269.38,52-371,139.17C53.2,556.35,82.24,804.3,220.6,899.44c172.53,118.64,411.13,32.45,581.46,154C901,1124,936,1251.8,1020,1334.81c28.7,28.36,68,50,104.26,67.65,59.2,28.81,124.65,45.26,188.49,28.87,95.48-24.51,153.5-118.48,195.09-202.85,49-99.32,58.84-204.64,61.75-313.73C1573,784.87,1586.65,660.42,1637.07,540.35Z" transform="translate(-95.1 -1.78)"/></g></g></svg>