<svg xmlns="http://www.w3.org/2000/svg" viewBox="0 0 1271.26 981.06"><defs><style>.cls-1{fill:#191c2e;}</style></defs><title>bulbAsset 35</title><g id="Layer_2" data-name="Layer 2"><g id="图层_1" data-name="图层 1"><path class="cls-1" d="M1297.19,346.85c9.6,76.22-5,174.86-74.17,220.77-79,52.47-179.39,62.74-271.46,61.45-72.21-1-149.32-8.62-214.33,26.29C621.89,717.3,612.4,882.63,507.29,958.26c-35.91,25.84-77.26,41.61-119.5,54.43-82.65,25.11-185.44,46.77-266.06,1.78C-3.47,944.59,21.24,762.83,60.12,650.23,178,308.89,511.55,28.26,885.71,62.32c101.31,9.22,199.76,40.22,290.42,85.8C1249.35,184.94,1287.38,269,1297.19,346.85Z" transform="translate(-28.59 -59.51)"/></g></g></svg>