<svg xmlns="http://www.w3.org/2000/svg" viewBox="0 0 1277.87 1331.89"><defs><style>.cls-1{fill:none;stroke:#000;stroke-miterlimit:10;stroke-width:10px;}</style></defs><title>bulbAsset 18</title><g id="Layer_2" data-name="Layer 2"><g id="图层_1" data-name="图层 1"><path class="cls-1" d="M1254.19,472.15c6.44-32.22,10-40.58,12.29-66.35,13-147-62.62-322.72-196.18-378.5C972.66-13.48,912,6,844.35,50.7,828.81,61,812.9,72.54,796.08,85,681.2,170.31,540.65,217.53,399,235.48c-102.39,13-215.2,12.72-294.37,78.93-119,99.5-132.49,402.3-34.3,521.38C201,994.37,425.59,911.86,580.79,1022.52c88.3,63,127.55,185,216,251.58,20,15,171.17,92.21,302.12,27,105.54-52.58,140.73-170.43,155.3-219.24C1316.51,873,1198.29,751.41,1254.19,472.15Z"/></g></g></svg>