<svg xmlns="http://www.w3.org/2000/svg" viewBox="0 0 1640.14 1043.41">
    <defs>
        <style>
            .cls-1 {
                fill: #0e0f25;
            }
        </style>
    </defs>
    <title>bulbAsset 15</title>
    <g id="Layer_2" data-name="Layer 2">
        <g id="图层_1" data-name="图层 1">
            <path class="cls-1"
                d="M1138.2,135.88c82.86-24.24,166.94-44.6,250.54-28.42,196.75,38.09,319.59,274.75,210.65,449.45-62.26,99.86-182.85,147.25-298.78,167.46s-235.93,20-348.16,55.43c-231,72.82-415.14,265.58-668.71,263.6C190.68,1042.67,88.23,1012,42,931.27c-25.5-44.58-30-97.71-33.63-148.94C-.43,657-7.14,530.27,14.34,406.51S88,160.68,180.91,76.15C230.85,30.71,295.52-3.74,362.91.33c64.55,3.89,121.21,41.6,178.6,71.39C717,162.82,947.79,191.59,1138.2,135.88Z" />
        </g>
    </g>
</svg>