<svg id="Layer_1" data-name="Layer 1" xmlns="http://www.w3.org/2000/svg" viewBox="0 0 400 218.3"><defs><style>.cls-1{fill:#0e0f25;}</style></defs><title>group_01</title><g id="图层_1" data-name="图层 1"><path class="cls-1" d="M284.46,29c23.21-1.89,47.15-2,69.12,5.74,20.29,7.14,40.95,22.62,45.58,45.16,4.13,20-7.54,38-23.66,48.69-21.68,14.45-49.88,18-75.41,18.48-24.76.45-50.27-1.57-74.16,5-23.4,6.4-43.8,20.19-63.57,34.27-17.92,12.78-36.21,26.14-58.19,30.57-18,3.63-37.82.37-51.29-12.4-8.42-8-13.91-18.24-19.16-28.6C21.22,151.23,8.19,126.09,2.39,99S.87,43.62,19.81,22.73A70.06,70.06,0,0,1,66.62.13C84.82-1,102.57,5.28,120,10.64,172.43,26.74,229.77,33.48,284.46,29Z" transform="translate(0 0.01)"/></g></svg>