<svg id="Layer_1" data-name="Layer 1" xmlns="http://www.w3.org/2000/svg" viewBox="0 0 409 260.2"><defs><style>.cls-1{fill:#0e0f25;}</style></defs><title>group_01</title><g id="图层_1" data-name="图层 1"><path class="cls-1" d="M283.83,33.89c20.66-6.05,41.63-11.13,62.48-7.09,49.06,9.5,79.7,68.51,52.53,112.08-15.53,24.9-45.6,36.72-74.51,41.76s-58.83,5-86.82,13.82C179.91,212.62,134,260.69,70.76,260.2c-23.21-.19-48.76-7.83-60.29-28C4.11,221.12,3,207.87,2.09,195.09c-2.2-31.25-3.87-62.85,1.48-93.72S21.94,40.07,45.11,19C57.57,7.66,73.69-.93,90.5.08c16.09,1,30.22,10.38,44.54,17.81C178.8,40.6,236.35,47.78,283.83,33.89Z" transform="translate(0 0)"/></g></svg>