<svg xmlns="http://www.w3.org/2000/svg" viewBox="0 0 1417.64 984.9"><defs><style>.cls-1{fill:#191c2e;}</style></defs><title>bulbAsset 36</title><g id="Layer_2" data-name="Layer 2"><g id="图层_1" data-name="图层 1"><path class="cls-1" d="M1575.56,357.83c-23.66,88-84.81,185.73-172.69,219.18-96.32,36.66-201.11,35.11-302.62,23.12-75.38-8.9-156.19-22.28-226.25,11.21-116.64,55.76-116.08,216.74-209,295.79-28.24,24-61.87,39.4-96.84,52.42C494.39,987,414.49,1003.2,340.28,973.3c-118.4-47.71-173.69-196.07-172.41-317.21,4.9-464,552.68-680.93,947.41-648.49,134.32,11,268,47.82,385,115.52C1583.87,171.5,1598.91,271,1575.56,357.83Z" transform="translate(-167.85 -4.43)"/></g></g></svg>