<svg xmlns="http://www.w3.org/2000/svg" viewBox="0 0 1918.11 1376.98"><defs><style>.cls-1{fill:none;stroke:#000;stroke-miterlimit:10;stroke-width:10px;}</style></defs><title>bulbAsset 40</title><g id="Layer_2" data-name="Layer 2"><g id="图层_1" data-name="图层 1"><path class="cls-1" d="M2050.86,598.34c16-20.16,34.59-39.31,48-61.57,43.42-72.06,56.39-160.84,30.24-241.58C2097,196,2014.39,124.63,1922.39,84.12c-68.34-30.1-142.35-50-218.15-51.89-65-1.64-129.35,10.11-191.23,28.8-30.36,9.17-60.37,19.61-90.18,30.56-218.17,80.14-445.68,132.87-672.89,179.66C666.25,288.49,582,305,500.55,331.34c-71.37,23.12-145.44,54.63-200.11,107-155.89,149.4-7.19,424.18,152.11,504,100.86,50.55,211.15,53,321.86,52,102.09-.95,215.6-3.15,304.73,54.57,98.62,63.87,127.75,187.5,205.73,267.85,64.16,66.11,174.4,98.33,262.09,74.33,95.73-26.19,169.76-106.35,231.62-181.9,67.71-82.69,102.65-175.37,127.27-278.16C1935,809.37,1972.54,696.8,2050.86,598.34Z" transform="translate(-229.44 -27.08)"/></g></g></svg>