<svg xmlns="http://www.w3.org/2000/svg" viewBox="0 0 1968.61 1064.84"><defs><style>.cls-1{fill:#0e0f25;}</style></defs><title>bulbAsset 32</title><g id="Layer_2" data-name="Layer 2"><g id="图层_1" data-name="图层 1"><path class="cls-1" d="M1586.72,153.48c114.12-16.95,232.57-27.44,344.52,2.85,102.74,27.8,203.54,102,221.47,214.14,17.18,107.45-48.84,207.3-129.9,270.94-105,82.46-243,116.58-374.27,125.23-119.58,7.89-243.27.43-358.3,33.83-111.82,32.46-209.18,99.12-305.07,165.43-84.51,58.45-172.37,117.36-277.28,128.23-91.84,9.51-185-19.93-250.32-82.71C416.36,971.78,388,920.78,361,869.67,297.92,750.56,231.45,629.32,200.25,497.93c-30.47-128.31-11.27-262.17,81-360.75,59.5-63.58,145-101.08,230.24-105.65,90-4.81,177.53,26.57,263.8,53.18C1033.78,164.45,1318.44,193.32,1586.72,153.48Z" transform="translate(-186.84 -31.04)"/></g></g></svg>