<svg xmlns="http://www.w3.org/2000/svg" viewBox="0 0 2035.63 1110.9">
    <defs>
        <style>
            .cls-1 {
                fill: #0e0f25;
            }
        </style>
    </defs>
    <title>bulbAsset 29</title>
    <g id="Layer_2" data-name="Layer 2">
        <g id="图层_1" data-name="图层 1">
            <path class="cls-1"
                d="M1635.11,174.68c118.11-9.64,239.92-10.15,351.72,29.21,103.28,36.36,208.4,115.1,232,229.82,21,101.61-38.39,193.17-120.41,247.79-110.37,73.51-253.84,91.72-383.78,94.06-126,2.28-255.81-8-377.37,25.28-119.08,32.56-222.94,102.72-323.53,174.41-91.18,65-184.27,133-296.12,155.55-91.35,18.46-192.45,1.87-261-63.1-42.86-40.61-70.79-92.84-97.51-145.55C295.49,796.6,229.18,668.66,199.67,530.74,170.24,393.22,191.93,249,288.3,142.67,349.41,75.28,437,33.43,526.53,27.68c92.6-5.94,182.93,26.17,271.71,53.45C1065,163.08,1356.8,197.38,1635.11,174.68Z"
                transform="translate(-187.48 -26.97)" />
        </g>
    </g>
</svg>