<svg xmlns="http://www.w3.org/2000/svg" viewBox="0 0 1335.89 1337.33"><defs><style>.cls-1{fill:none;stroke:#000;stroke-miterlimit:10;stroke-width:10px;}</style></defs><title>bulbAsset 37</title><g id="Layer_2" data-name="Layer 2"><g id="图层_1" data-name="图层 1"><path class="cls-1" d="M1323.64,477.58c4.86-22.31,11.39-44.65,13.73-67.56,14.84-145.33-57.86-321.23-202.9-371.59-42.1-14.62-86.56-23.28-131.39-15.47-39.26,6.84-75.11,25.39-108,46.93-17.34,11.34-34.36,23.5-51.23,35.54C720.53,193.43,574,241,424.24,257.68c-102.62,11.41-223.37,5.52-309.75,71.47-72.58,55.41-96.26,160-100.41,246.69C9.74,666.5,24.56,772.57,84.73,844c135.12,160.47,371.74,87.75,532.51,199.63,94,65.39,131,187.17,223.6,252.09,85.26,59.79,220.67,68,312.1,22.7,87.87-43.51,134.59-135,163.14-226,29.38-93.59,20.77-185.73,6-280.91C1304.53,698.78,1299.34,589.1,1323.64,477.58Z" transform="translate(-8.38 -15.02)"/></g></g></svg>