<svg xmlns="http://www.w3.org/2000/svg" viewBox="0 0 1304.37 981.73"><defs><style>.cls-1{fill:#191c2e;}</style></defs><title>bulbAsset 33</title><g id="Layer_2" data-name="Layer 2"><g id="图层_1" data-name="图层 1"><path class="cls-1" d="M1445.51,341.65c-20.37,84.58-74.69,178.82-155.06,217.38-86.61,41.55-183.88,49.68-279.37,42.72-70.38-5.12-145.22-15.25-208.82,18.44-111,58.77-106.76,218.57-193.57,300-26,24.36-57.39,40.69-90.38,54.09-69,28-144.15,43-212.58,7.81C189.59,922.36,146.57,755.44,149,632.76c3.71-191.68,101.58-362.06,260.16-468.67C584.72,46,808.56,6.4,1016.84,25.42,1140.17,36.69,1263,69.3,1372.39,128,1450.76,170,1464.72,261.92,1445.51,341.65Z" transform="translate(-148.85 -20.88)"/></g></g></svg>