<svg xmlns="http://www.w3.org/2000/svg" fill="#2c4058" width="191" height="191"><rect id="backgroundrect" width="100%" height="100%" x="0" y="0" fill="none" stroke="none" class="" style=""/><g class="currentLayer" style=""><title>Layer 1</title><path d="M118.09999713897707,95.44999694824219 l68.2,-68.2 c6.2,-6.2 6.2,-16.4 0,-22.6 c-6.2,-6.2 -16.4,-6.2 -22.6,0 L95.49999713897705,72.8499969482422 l-68.2,-68.2 c-6.2,-6.2 -16.4,-6.2 -22.6,0 c-3.1,3.1 -4.7,7.2 -4.7,11.3 c0,4.1 1.6,8.2 4.7,11.3 l68.2,68.2 l-68.2,68.2 c-3.1,3.1 -4.7,7.2 -4.7,11.3 c0,4.1 1.6,8.2 4.7,11.3 c6.2,6.2 16.4,6.2 22.6,0 l68.2,-68.2 l68.2,68.2 c6.2,6.2 16.4,6.2 22.6,0 c6.2,-6.2 6.2,-16.4 0,-22.6 L118.09999713897707,95.44999694824219 z" id="svg_1" class=""/></g></svg>